<svg width="42" height="39" viewBox="0 0 42 39" fill="none" xmlns="http://www.w3.org/2000/svg">
<path fill-rule="evenodd" clip-rule="evenodd" d="M7.3431 13.1665H13.6862V21.6498C13.6862 23.9158 11.824 25.7752 9.55446 25.7752H7.3431C3.85149 25.7752 1 22.9281 1 19.4418C1 16.0136 3.85149 13.1665 7.3431 13.1665Z" fill="#5799F1"/>
<path fill-rule="evenodd" clip-rule="evenodd" d="M24.9756 13.1668C25.9649 12.179 26.314 10.9007 26.314 9.50621V6.8334C26.314 3.34712 23.4626 0.5 19.9709 0.5C16.4793 0.5 13.6278 3.34712 13.6278 6.8334V21.6501C13.6278 23.9161 11.7656 25.7755 9.49609 25.7755H9.96164C11.5329 25.7755 12.8131 25.2525 13.9188 24.1486L24.9756 13.1668Z" fill="#0E184B"/>
<path fill-rule="evenodd" clip-rule="evenodd" d="M32.6568 25.8333H26.3137V16.9433C26.3137 14.8515 28.0013 13.1665 30.0963 13.1665H32.6568C36.1484 13.1665 38.9999 16.0136 38.9999 19.4999C38.9417 22.9862 36.1484 25.8333 32.6568 25.8333Z" fill="#0E184B"/>
<path fill-rule="evenodd" clip-rule="evenodd" d="M15.0249 25.8333C14.0356 26.8211 13.6864 28.0994 13.6864 29.4939V32.1667C13.6864 35.653 16.5379 38.5001 20.0295 38.5001C23.5211 38.5001 26.3726 35.653 26.3726 32.1667V17.2919C26.3726 15.0258 28.2348 13.1665 30.5044 13.1665H29.9806C28.4094 13.1665 27.1291 13.6894 26.0234 14.7934C26.0234 14.8515 15.0249 25.8333 15.0249 25.8333Z" fill="#5799F1"/>
<path d="M19.9716 35.0722C21.1286 35.0722 22.0665 34.1357 22.0665 32.9804C22.0665 31.8252 21.1286 30.8887 19.9716 30.8887C18.8145 30.8887 17.8766 31.8252 17.8766 32.9804C17.8766 34.1357 18.8145 35.0722 19.9716 35.0722Z" fill="white"/>
<path d="M33.4722 21.5922C34.6292 21.5922 35.5671 20.6557 35.5671 19.5005C35.5671 18.3452 34.6292 17.4087 33.4722 17.4087C32.3151 17.4087 31.3772 18.3452 31.3772 19.5005C31.3772 20.6557 32.3151 21.5922 33.4722 21.5922Z" fill="white"/>
</svg>
