<svg width="167" height="166" viewBox="0 0 167 166" fill="none" xmlns="http://www.w3.org/2000/svg">
<g filter="url(#filter0_d_2006_337)">
<path d="M114.071 71.4021C125.435 64.6177 130.702 50.4921 125.921 37.6407C120.536 23.1563 104.429 15.7783 89.9442 21.1633C75.4598 26.5483 68.0817 42.6558 73.4667 57.1402C73.5347 57.3282 73.6084 57.5069 73.6805 57.6924L73.668 57.7C73.6 57.512 73.5388 57.3257 73.4667 57.1402C68.0817 42.6558 51.9742 35.2778 37.4898 40.6628C23.0054 46.0478 15.6273 62.1553 21.0124 76.6397C25.7904 89.4868 39.0058 96.742 52.0387 94.4574C40.6747 101.242 35.4078 115.367 40.1884 128.219C45.5734 142.703 61.6809 150.081 76.1653 144.696C90.6497 139.311 98.0278 123.204 92.6428 108.719C92.5833 108.555 92.5197 108.393 92.4544 108.238L92.467 108.23C92.5264 108.395 92.5792 108.557 92.6428 108.719C98.0278 123.204 114.135 130.582 128.62 125.197C143.104 119.812 150.482 103.704 145.097 89.2198C140.319 76.3727 127.104 69.1175 114.071 71.4021Z" fill="white"/>
</g>
<path d="M57.101 79.5706C57.4655 80.6391 58.5776 81.2041 59.891 80.7561C61.2044 80.308 61.7172 79.1888 61.3527 78.1203C61.0262 77.1631 59.8912 76.5314 58.7114 76.9338L58.5333 76.9946C57.2867 77.4198 56.7744 78.6134 57.101 79.5706ZM52.38 74.5459C51.5826 72.2086 53.269 69.7944 55.8512 68.9135C58.4334 68.0326 61.0879 68.9661 61.8852 71.3035C62.2421 72.3497 62.1695 73.6667 61.4901 74.3706C62.97 74.338 64.5711 75.6805 65.1027 77.2387C66.0746 80.088 64.1156 82.8686 60.9769 83.9393C57.8382 85.01 54.566 84.0139 53.594 81.1646C53.0473 79.5618 53.3247 77.7525 54.6116 76.717C53.6133 76.486 52.7141 75.5254 52.38 74.5459ZM55.7646 73.5405C56.0304 74.3196 56.799 74.6786 57.7117 74.3673C58.6021 74.0636 58.9687 73.3172 58.703 72.5381C58.4904 71.9148 57.706 71.4368 56.9047 71.7102L56.7711 71.7558C55.9029 72.0519 55.5292 72.8504 55.7646 73.5405ZM68.8729 72.8959C69.6323 75.122 70.8115 76.7575 72.2361 76.2715C73.6385 75.7931 73.5056 73.8007 72.7462 71.5746C71.9793 69.3263 70.8593 67.6458 69.4569 68.1242C68.0322 68.6102 68.106 70.6476 68.8729 72.8959ZM65.3112 74.1109C63.8761 69.9037 64.0059 66.1318 68.2799 64.6738C72.5316 63.2234 74.8727 66.1524 76.3079 70.3597C77.7355 74.5446 77.6573 78.2492 73.4055 79.6996C69.1315 81.1576 66.7388 78.2959 65.3112 74.1109ZM81.1944 68.6928C81.9538 70.9188 83.133 72.5543 84.5576 72.0683C85.96 71.5899 85.8271 69.5975 85.0677 67.3715C84.3008 65.1232 83.1808 63.4426 81.7784 63.921C80.3537 64.407 80.4275 66.4444 81.1944 68.6928ZM77.6328 69.9077C76.1976 65.7005 76.3274 61.9286 80.6014 60.4706C84.8531 59.0203 87.1942 61.9493 88.6294 66.1565C90.057 70.3415 89.9788 74.0461 85.727 75.4964C81.453 76.9544 79.0603 74.0927 77.6328 69.9077ZM100.492 62.2094L100.993 63.6786L96.2958 65.2809C97.4577 66.5744 99.1492 67.0162 100.841 66.4391C102.466 65.8848 103.55 64.5458 103.807 63.0416L107.6 63.9597C107.09 66.6186 105.083 68.8937 102.033 69.934C98.2712 71.2173 94.3786 69.7868 92.378 66.6173L90.1742 67.3691L89.673 65.8999L100.492 62.2094ZM95.0028 61.1991L99.6107 59.6272L100.112 61.0964L89.2933 64.7869L88.7921 63.3177L91.0404 62.5508C90.7766 58.8634 92.9693 55.4564 96.6645 54.1959C99.6919 53.1632 102.589 53.7156 104.587 55.4198L102.124 58.4717C101.009 57.4605 99.4671 57.1663 97.8643 57.713C96.2393 58.2674 95.2069 59.539 95.0028 61.1991Z" fill="#0E184B"/>
<path d="M65.5952 93.4935L63.2731 94.357L64.5901 97.8989L66.8535 97.0573C67.9851 96.6366 68.1074 95.5706 67.7849 94.7035C67.468 93.8511 66.6828 93.0891 65.5952 93.4935ZM67.9496 98.2056L72.0141 100.994L70.1182 101.699L66.2078 98.9201L65.1202 99.3245L66.5028 103.043L64.9302 103.628L61.165 93.5014L65.1185 92.0314C67.2936 91.2226 68.8059 92.5004 69.4016 94.1024C69.9481 95.5721 69.745 97.3205 67.9496 98.2056ZM78.8421 98.4547L78.476 97.47C78.2844 98.3944 77.4712 99.1317 76.5893 99.4596C74.7522 100.143 72.587 99.3586 71.7728 97.1687C70.9585 94.9789 72.0909 92.9853 73.928 92.3022C74.751 91.9962 75.8908 91.9572 76.6507 92.5612L76.2901 91.5912L77.7891 91.0338L80.3412 97.8973L78.8421 98.4547ZM73.3252 96.5748C73.7952 97.8387 75.0876 98.3451 76.2192 97.9244C77.3362 97.509 78.046 96.3585 77.5432 95.0064C77.0459 93.669 75.6796 93.3238 74.6508 93.7064C73.5192 94.1271 72.8552 95.3108 73.3252 96.5748ZM82.707 93.0863C83.2043 94.4237 84.4841 94.8512 85.601 94.4359C86.7474 94.0097 87.3509 92.7983 86.8809 91.5343C86.4109 90.2704 85.179 89.7917 84.0326 90.2179C83.0038 90.6004 82.2097 91.7489 82.707 93.0863ZM83.9765 96.5456L82.4627 97.1084L78.5226 86.512L80.0364 85.9491L81.7906 90.6668C81.9381 89.7588 82.6925 89.0433 83.6772 88.6772C85.5437 87.9831 87.6153 88.7854 88.435 90.9899C89.2383 93.1504 88.161 95.1569 86.3239 95.84C85.3833 96.1898 84.3098 96.1372 83.6049 95.5462L83.9765 96.5456ZM96.7539 91.7945L96.3878 90.8098C96.1962 91.7342 95.383 92.4715 94.5012 92.7994C92.6641 93.4825 90.4989 92.6984 89.6846 90.5085C88.8704 88.3187 90.0027 86.3251 91.8398 85.642C92.6629 85.336 93.8026 85.297 94.5626 85.901L94.2019 84.931L95.701 84.3736L98.253 91.2371L96.7539 91.7945ZM91.237 89.9146C91.707 91.1785 92.9994 91.685 94.1311 91.2642C95.248 90.8488 95.9578 89.6983 95.455 88.3462C94.9577 87.0088 93.5915 86.6636 92.5627 87.0462C91.431 87.4669 90.7671 88.6506 91.237 89.9146ZM98.9128 80.2184L99.8801 82.8197L101.335 82.2787L101.8 83.5279L100.345 84.069L102.432 89.6832L100.918 90.246L98.8308 84.6318L97.5963 85.0909L97.1317 83.8416L98.3663 83.3826L97.399 80.7812L98.9128 80.2184ZM103.85 78.3825L104.817 80.9839L106.272 80.4429L106.737 81.6921L105.282 82.2331L107.369 87.8473L105.856 88.4102L103.768 82.796L102.533 83.255L102.069 82.0058L103.304 81.5468L102.336 78.9454L103.85 78.3825Z" fill="#0E184B"/>
<defs>
<filter id="filter0_d_2006_337" x="14.302" y="14.453" width="142.837" height="142.285" filterUnits="userSpaceOnUse" color-interpolation-filters="sRGB">
<feFlood flood-opacity="0" result="BackgroundImageFix"/>
<feColorMatrix in="SourceAlpha" type="matrix" values="0 0 0 0 0 0 0 0 0 0 0 0 0 0 0 0 0 0 127 0" result="hardAlpha"/>
<feOffset dx="2.6656" dy="2.6656"/>
<feGaussianBlur stdDeviation="3.8073"/>
<feColorMatrix type="matrix" values="0 0 0 0 0 0 0 0 0 0 0 0 0 0 0 0 0 0 0.1 0"/>
<feBlend mode="normal" in2="BackgroundImageFix" result="effect1_dropShadow_2006_337"/>
<feBlend mode="normal" in="SourceGraphic" in2="effect1_dropShadow_2006_337" result="shape"/>
</filter>
</defs>
</svg>
