<svg width="20" height="31" viewBox="0 0 20 31" fill="none" xmlns="http://www.w3.org/2000/svg">
<path fill-rule="evenodd" clip-rule="evenodd" d="M9.22813 28.946H0.851915C0.383076 28.946 0 28.5663 0 28.0887V16.0121C0 13.9005 0.857633 11.9788 2.24128 10.5865C2.88736 9.94209 3.64208 9.40702 4.47684 9.02153V4.77543C4.47684 4.30364 4.85992 3.9239 5.32876 3.9239H6.7753V1.71455H4.7227C4.25386 1.71455 3.8765 1.32906 3.8765 0.857275C3.8765 0.385486 4.25386 0 4.7227 0H14.8027C14.9857 0 15.1687 0.0632888 15.3173 0.178359L18.1361 2.35895C18.5077 2.64662 18.5763 3.1817 18.2905 3.55568C18.0046 3.9239 17.4728 3.9987 17.1012 3.71102L14.5169 1.71455H11.2693V3.9239H12.7216C13.1904 3.9239 13.5735 4.30939 13.5735 4.77543V9.02153C14.4082 9.40702 15.1687 9.94209 15.809 10.5865C17.1927 11.9788 18.0503 13.9005 18.0503 16.0121V19.562C17.8616 19.3203 17.6672 19.0844 17.4786 18.8428C16.7581 17.9337 16.0149 17.0074 15.4031 15.9948C15.1572 15.5921 14.6369 15.4655 14.2367 15.7129C14.1166 15.7877 14.0194 15.8855 13.9508 16.0063C13.3391 17.0132 12.6015 17.9395 11.8811 18.8428C10.1144 21.0579 8.44483 23.1464 8.51915 26.2764C8.54202 27.3062 8.79931 28.198 9.22813 28.9402V28.946ZM14.6827 16.4436C12.5901 19.8842 9.27387 22.1971 9.36535 26.2648C9.43396 29.412 12.0583 30.9942 14.6827 31.0058C17.307 30.9942 19.9314 29.412 20 26.2648C20.0915 22.1971 16.7753 19.8899 14.6827 16.4436Z" fill="#0079F1"/>
</svg>
