<svg width="28" height="32" viewBox="0 0 28 32" fill="none" xmlns="http://www.w3.org/2000/svg">
<g clip-path="url(#clip0_1_2125)">
<path fill-rule="evenodd" clip-rule="evenodd" d="M12.3161 0.00611855C14.3779 0.00611855 16.2462 0.850478 17.6005 2.22103C18.9549 3.59159 19.7892 5.48222 19.7892 7.56864C19.7892 9.65507 18.9549 11.5457 17.6005 12.9163C16.9899 13.5342 16.2704 14.0482 15.4783 14.4275C17.2015 14.8925 18.7795 15.7308 20.1157 16.8444C18.2414 17.034 16.5606 17.8784 15.303 19.1511C14.5774 19.8853 13.9909 20.7725 13.5858 21.7576C13.1989 22.7059 12.9873 23.74 12.9873 24.8229C12.9873 25.9059 13.1989 26.94 13.5858 27.8822C13.9909 28.8673 14.5774 29.7545 15.303 30.4887C15.3755 30.5621 15.4541 30.6356 15.5327 30.709H2.71475C1.97106 30.709 1.28784 30.4031 0.7981 29.9013C0.308357 29.4057 0 28.7205 0 27.9618V26.4627C0 23.0363 1.38458 19.922 3.61563 17.6642C5.12719 16.1346 7.03174 14.9966 9.15396 14.4214C8.36191 14.0482 7.64241 13.5342 7.0257 12.9101C5.67135 11.5396 4.83697 9.64895 4.83697 7.56252C4.83697 5.4761 5.67135 3.58547 7.0257 2.21491C8.38005 0.844359 10.2483 0 12.3101 0L12.3161 0.00611855ZM20.9017 17.6337C18.9428 17.6337 17.1652 18.4413 15.8834 19.7384C14.6016 21.0356 13.8035 22.8344 13.8035 24.8168C13.8035 26.7992 14.5956 28.5981 15.8834 29.8952C17.1652 31.1923 18.9428 32 20.9017 32C22.8607 32 24.6383 31.1923 25.9262 29.8952C27.2079 28.5981 28.006 26.7992 28.006 24.8168C28.006 22.8344 27.214 21.0356 25.9262 19.7384C24.6444 18.4352 22.8668 17.6337 20.9017 17.6337ZM20.0492 21.2925L20.0734 24.0031L17.401 24.0275C16.9475 24.0275 16.5848 24.4069 16.5908 24.8597C16.5908 25.3185 16.9657 25.6857 17.4131 25.6795L20.0916 25.6551L20.1157 28.3595C20.1157 28.8184 20.4906 29.1855 20.938 29.1793C21.3915 29.1793 21.7543 28.8061 21.7482 28.3472L21.724 25.6428L24.3965 25.6184C24.8499 25.6184 25.2067 25.239 25.2067 24.7862C25.2067 24.3273 24.8318 23.9602 24.3844 23.9663L21.7059 23.9908L21.6817 21.2864C21.6817 20.8275 21.3068 20.4604 20.8594 20.4665C20.406 20.4665 20.0432 20.8459 20.0492 21.2987V21.2925Z" fill="#0079F1"/>
</g>
<defs>
<clipPath id="clip0_1_2125">
<rect width="28.006" height="32" fill="white"/>
</clipPath>
</defs>
</svg>
