<svg width="28" height="29" viewBox="0 0 28 29" fill="none" xmlns="http://www.w3.org/2000/svg">
<g clip-path="url(#clip0_1_2129)">
<path fill-rule="evenodd" clip-rule="evenodd" d="M2.99709 5.31446C4.90563 2.79482 7.61021 0.912327 10.732 0.0434854C10.8902 -0.0144374 11.0676 -0.0144374 11.2307 0.0627929C11.5568 0.217254 11.6958 0.603405 11.5472 0.931634C11.1396 1.81013 10.8231 2.73689 10.6121 3.69262C10.4107 4.61938 10.3004 5.59442 10.3004 6.60324C10.3004 10.3151 11.7965 13.6746 14.2086 16.1026C16.6207 18.5305 19.963 20.0365 23.6506 20.0365C24.2644 20.0365 24.8591 19.9979 25.4345 19.9206C26.0099 19.8434 26.5758 19.7276 27.1272 19.5779C27.2855 19.52 27.4629 19.5248 27.6212 19.6021C27.9473 19.7565 28.0863 20.1427 27.9377 20.4709C26.7532 23.0292 24.8638 25.1868 22.5141 26.6928C20.2411 28.1505 17.5414 29 14.6498 29C10.6025 29 6.93886 27.3492 4.28704 24.68C1.64001 22.0107 0 18.3229 0 14.249C0 10.8895 1.11731 7.79548 2.99709 5.31446Z" fill="#0079F1"/>
</g>
<defs>
<clipPath id="clip0_1_2129">
<rect width="28" height="29" fill="white"/>
</clipPath>
</defs>
</svg>
