<svg width="113" height="113" viewBox="0 0 113 113" fill="none" xmlns="http://www.w3.org/2000/svg">
<g clip-path="url(#clip0_1_2108)">
<path d="M56.5 113C87.7041 113 113 87.7041 113 56.5C113 25.2959 87.7041 0 56.5 0C25.2959 0 0 25.2959 0 56.5C0 87.7041 25.2959 113 56.5 113Z" fill="#F9F95A"/>
<path d="M22.6547 34.7926C22.6566 37.1807 22.1349 39.1695 21.2761 40.582C20.8335 39.3578 19.5622 38.1694 18.4887 39.435C18.0047 39.9793 17.8578 40.5707 17.8559 41.0114C17.7524 43.1207 21.8693 38.7194 21.9673 47.3111C21.9993 52.8011 20.0481 56.8502 17.3324 56.7768C15.0027 56.7052 13.852 55.1533 13.8369 52.5732C13.8388 51.155 14.1665 49.654 14.756 48.4675C14.9688 49.4939 16.063 50.9497 17.097 50.5222C17.4604 50.3339 17.6902 49.8762 17.6883 49.2792C17.5904 46.829 14.4452 49.5448 14.5488 45.3845C14.5752 42.7045 15.6223 37.6365 18.2835 33.2784C20.1009 30.3216 22.6453 29.282 22.6528 34.7964L22.6547 34.7926Z" fill="#0079F1"/>
<path d="M30.3556 52.0535C29.4912 54.5772 28.1616 56.2251 26.5457 56.2571C24.9034 56.2552 23.3741 54.2495 23.376 48.9987C23.3685 44.4298 24.7584 38.3033 24.7659 31.6193C24.7659 30.2332 24.5908 29.0806 24.3987 28.3179C24.6039 27.2858 26.0259 24.6002 27.0127 23.7734C29.0995 22.0068 30.2765 24.037 30.269 28.8527C30.2615 33.836 28.4516 41.5483 28.4591 44.9289C28.4591 45.9741 28.6889 46.4412 29.0279 46.364C30.3199 46.1417 31.2935 37.9285 31.2917 31.5289C31.2917 28.4064 31.0487 25.7584 30.5063 25.0013C31.0883 22.3213 32.5422 19.7995 33.6797 19.1554C36 17.8258 37.2034 20.4681 37.1978 25.0258C37.1903 32.6853 35.1148 43.7763 35.1224 49.0703C35.1224 50.2455 35.192 51.6241 35.4689 52.6788C34.7513 54.709 33.8323 55.6168 32.7343 55.645C31.48 55.6695 30.7248 54.0875 30.3556 52.0535Z" fill="#0079F1"/>
<path d="M47.8198 27.3761C47.8612 27.3704 47.9045 27.3648 47.946 27.3591C48.9818 23.4173 49.9517 17.4697 50.0026 14.8199C50.4094 14.0402 51.4056 13.3019 52.2249 13.2191C55.0424 12.929 56.9276 17.5244 56.9257 23.7073C56.9257 33.2973 55.2024 41.147 55.2024 48.3639C55.2024 49.5768 55.2797 50.9705 55.5377 52.0628C54.741 54.191 53.6091 55.5263 51.9706 55.5319C49.8726 55.5357 48.6578 52.9781 48.6578 48.3319C48.6578 42.5539 50.1043 37.0206 50.8971 31.4196C50.8538 31.4234 50.8124 31.4271 50.7691 31.429C49.543 35.9791 48.2755 41.2148 47.8217 47.5315C47.3169 48.3865 46.8875 48.7576 46.1587 48.7915C43.8535 48.8875 43.4938 44.3468 43.4919 39.8249C43.4919 37.6214 43.5917 35.4028 43.5917 33.7191C43.5917 33.1975 43.5917 32.7323 43.5672 32.3311C43.5258 32.3387 43.4843 32.3462 43.4429 32.3518C43.0964 36.5291 42.925 39.7797 42.925 42.3222C42.925 47.1115 43.4919 49.5561 44.362 51.0985C43.6633 53.9951 41.6858 55.6317 40.2375 55.6468C38.1112 55.6581 37.1337 52.7276 37.1319 49.1323C37.1243 42.8797 39.5538 32.2822 39.5614 23.6508C39.5614 21.9653 39.3693 20.4586 39.1527 19.3663C39.7761 17.5714 40.9079 15.8181 42.5803 15.2794C45.7142 14.285 47.1719 19.5 47.8235 27.3742L47.8198 27.3761Z" fill="#0079F1"/>
<path d="M68.4895 27.6435C68.5309 27.651 68.5723 27.6567 68.6156 27.6642C69.6439 24.0539 70.5856 18.6449 70.6365 16.1081C71.0338 15.5167 71.9981 15.2286 72.7797 15.4979C75.471 16.4546 77.1792 21.4059 77.1829 26.9486C77.1867 35.5516 75.5934 42.3862 75.5896 49.0834C75.5896 50.2002 75.6612 51.4903 75.9004 52.5035C75.1602 54.4113 74.1037 55.6411 72.5349 55.6223C70.5235 55.6072 69.3144 53.0723 69.3162 48.4864C69.3162 42.7817 70.7382 37.5894 71.5009 32.4272C71.4595 32.4196 71.418 32.4121 71.3766 32.4046C70.192 36.4669 68.9415 41.39 68.4876 47.6181C67.9847 48.4167 67.5591 48.7538 66.8265 48.7237C64.4987 48.6446 64.1088 43.8929 64.1107 39.2034C64.1107 36.9208 64.2124 34.6457 64.2124 32.9055C64.2124 32.365 64.2124 31.8848 64.186 31.4629C64.1446 31.4591 64.1013 31.4554 64.058 31.4516C63.7001 35.6872 63.5212 39.0509 63.5212 41.6969C63.5212 46.6915 64.1088 49.2962 64.9996 50.9328C64.2896 53.8444 62.2462 55.5244 60.7038 55.5225C58.4438 55.5168 57.3608 52.2398 57.3608 48.2321C57.3608 41.1771 59.9843 30.1634 59.9843 20.9746C59.9843 19.1572 59.779 17.449 59.5474 16.1665C60.216 14.4978 61.4251 13.1663 63.1634 13.3773C66.4084 13.8104 67.8322 19.6732 68.4857 27.6416L68.4895 27.6435Z" fill="#0079F1"/>
<path d="M84.2963 36.6215C85.9781 37.0923 86.9782 36.6328 87.5507 35.5216C88.2626 36.516 88.7561 38.3033 88.7579 40.0303C88.7466 42.8986 87.8445 44.8931 85.1985 44.2094C84.7314 44.0814 84.172 43.8403 83.5807 43.441C83.5581 43.9363 83.5373 44.4298 83.5373 44.8309C84.0835 45.2057 84.624 45.4769 85.1777 45.6106C86.6072 45.9496 87.9255 45.4637 88.66 44.0456C88.9971 45.1097 89.2533 46.6408 89.2533 48.349C89.2344 52.8238 87.6374 56.0424 83.801 56.0499C81.4054 56.0179 77.8986 54.7015 77.8911 46.3508C77.8968 41.0398 79.684 31.7173 79.6803 26.0692C79.6803 25.1124 79.6577 23.7206 79.5183 22.536C81.2849 20.615 84.8368 20.9164 87.3492 23.1274C89.5527 25.0409 90.7298 28.5269 90.7354 31.9847C90.7354 34.595 89.7749 36.3446 88.7391 36.8607C88.2438 35.1092 87.4773 34.273 86.7936 33.9019C86.1326 33.5366 85.3736 33.5215 84.5996 33.7513C84.5129 34.6929 84.4056 35.6779 84.2982 36.6215H84.2963Z" fill="#0079F1"/>
<path d="M97.3796 35.0638C99.7413 39.3013 100.66 43.5445 100.683 45.6275C100.683 47.8705 99.5888 48.121 97.9107 47.8988C98.2347 48.9704 98.6528 49.8292 99.2347 50.2755C99.5944 50.5561 99.8129 50.4996 99.9824 50.4036C100.163 51.0684 100.291 52.5675 100.291 53.1608C100.282 55.0799 99.6585 56.5357 98.3006 56.5188C96.2459 56.5207 95.5923 51.9329 95.6225 48.5579C95.6225 47.9157 95.6394 47.3149 95.6696 46.7951C95.5792 46.7386 95.4888 46.684 95.3965 46.6275C95.3155 47.6407 95.2665 48.654 95.2665 49.5165C95.2665 51.3227 95.5584 53.4019 95.8259 54.11C95.4944 55.3229 94.5094 56.3869 93.1007 56.353C91.417 56.3304 90.6806 53.6429 90.69 50.801C90.7013 46.1586 92.2909 38.1205 92.2814 34.0393C92.2814 33.3255 92.2626 32.2803 92.1553 31.3348C93.547 30.6568 95.7298 32.1579 97.3777 35.0638H97.3796ZM95.6564 43.7799C96.8805 44.6462 97.5943 43.9212 97.5981 42.6556C97.5981 42.0096 97.4003 41.2807 96.9521 40.7421C96.7129 40.4596 96.3946 40.243 95.9878 40.1752C95.9257 41.2336 95.7995 42.4748 95.6564 43.7799Z" fill="#0079F1"/>
<path d="M37.9795 72.8586C38.0115 84.4675 33.6064 97.0726 28.3124 92.5263C25.09 89.8519 23.8056 85.0268 23.7886 81.0681C23.7811 77.1884 25.2633 70.124 25.2708 65.2405C25.2708 64.4514 25.252 63.3026 25.1333 62.3666C26.6061 60.4324 29.2465 58.6696 31.6214 58.7016C35.9794 58.6903 38.0021 65.1652 37.9776 72.8586H37.9795ZM32.2881 71.6156C32.2881 69.4102 31.951 67.8169 31.1619 67.6776C30.8549 67.6211 30.4839 67.8038 30.0545 68.2049C29.8774 74.5386 28.7098 81.2206 28.7135 83.2678C30.6722 83.4599 32.2937 76.3918 32.29 71.6156H32.2881Z" fill="#0079F1"/>
<path d="M45.5562 77.7797C47.5092 77.774 48.7578 76.676 49.4679 74.8662C50.3587 75.7005 50.9971 77.7816 50.9971 80.1282C51.0009 84.0305 49.7598 87.1756 46.609 86.7029C46.0553 86.62 45.4036 86.394 44.7313 85.9816C44.7068 86.5617 44.6823 87.1417 44.6823 87.6088C45.3057 88.0194 45.931 88.3075 46.5845 88.413C48.2682 88.6898 49.9236 87.8009 50.8691 85.5917C51.3022 86.8912 51.6356 88.9064 51.6356 91.2568C51.645 97.5001 49.4114 101.937 44.9818 100.785C42.1944 100.086 38.5878 97.2157 38.5991 88.8085C38.5954 83.5464 40.4486 73.7079 40.4523 67.5193C40.4523 66.5004 40.4279 65.0257 40.2828 63.8298C42.1116 61.1348 46.0534 58.935 49.2155 58.9407C51.9614 58.9501 53.6131 62.1028 53.6093 67.1916C53.6093 71.0072 52.3004 74.4876 50.9726 75.8549C50.3342 73.836 49.3662 73.3068 48.53 73.2503C47.7182 73.1975 46.8105 73.6043 45.9084 74.2277C45.8085 75.3954 45.6824 76.6177 45.5581 77.7797H45.5562Z" fill="#0079F1"/>
<path d="M59.2158 65.5173C60.1141 61.2647 60.504 59.5094 62.732 59.5C65.4251 59.5 68.5176 61.9728 68.5138 73.0619C68.5138 77.4143 68.0373 84.554 68.0373 90.5863C68.0373 93.9518 68.188 96.7655 68.7906 98.4511C68.139 100.131 67.0335 101.397 65.7396 101.628C62.9467 102.131 61.1933 97.5565 61.1952 90.9046C61.1952 90.1174 61.2215 88.9666 61.2724 87.9967C60.8618 88.202 60.4249 88.3451 59.9879 88.4826C59.9371 89.2717 59.9107 90.1833 59.9107 90.9102C59.9107 94.4264 60.4512 96.7674 61.0144 98.4812C60.3213 100.89 59.0632 102.37 57.4925 102.378C55.3305 102.391 53.4038 99.615 53.4038 93.4509C53.4038 86.7481 55.6902 82.1433 59.2158 65.5191V65.5173ZM62.0408 80.1564C62.4758 76.1468 62.9617 72.1504 62.9617 69.2594C62.9617 68.1144 62.8845 67.2725 62.8845 67.2725C62.8412 67.2725 62.7998 67.2744 62.7564 67.2763C62.2969 71.446 61.3986 76.2523 60.7319 81.0001C61.2196 80.7402 61.6547 80.4785 62.0389 80.1564H62.0408Z" fill="#0079F1"/>
<path d="M71.6478 62.4682C71.9209 61.2949 73.4201 59.485 74.5764 59.4718C77.0342 59.4492 77.9985 62.5153 78.0022 67.0033C78.0022 72.4574 76.7103 79.9832 76.0172 85.9439C78.3845 85.2189 80.5071 81.6255 81.4261 79.3165C82.3471 80.9738 82.6522 83.9645 82.654 85.9477C82.639 91.1269 80.8027 96.3117 76.6123 98.2967C73.9907 99.5378 70.2655 99.261 70.2617 90.3264C70.2655 84.6896 72.1187 74.9434 72.1168 67.2839C72.1168 65.4439 71.8965 63.73 71.6497 62.4682H71.6478Z" fill="#0079F1"/>
<path d="M86.7914 82.4202C88.072 81.6857 88.7745 82.9343 88.7764 85.1435C88.7764 87.9101 87.6728 91.1136 86.2923 92.2229C85.1454 93.1401 84.166 92.1269 84.166 89.2906C84.166 86.1944 85.3638 83.23 86.7914 82.4202ZM85.8723 69.7095C85.8685 61.954 87.1699 59.1026 88.8141 59.0706C90.4714 59.0292 91.0063 61.4737 91.0138 64.0671C91.044 69.7529 88.1003 76.8907 87.2227 81.3297C86.6916 81.2676 85.8742 75.9227 85.8723 69.7114V69.7095Z" fill="#0079F1"/>
</g>
<defs>
<clipPath id="clip0_1_2108">
<rect width="113" height="113" fill="white"/>
</clipPath>
</defs>
</svg>
