<svg width="712" height="357" viewBox="0 0 712 357" fill="none" xmlns="http://www.w3.org/2000/svg">
<g clip-path="url(#clip0_1_2089)">
<path d="M72.312 176.407C72.3275 195.924 68.0493 212.178 61.0065 223.722C57.377 213.717 46.9364 204.02 38.1484 214.348C34.1791 218.796 32.9744 223.629 32.959 227.231C32.1095 244.47 65.8716 208.499 66.6747 278.702C66.9373 323.569 50.9366 356.662 28.6653 356.061C9.56026 355.461 0.123557 342.778 0 321.691C0.0154447 310.101 2.70282 297.834 7.53701 288.137C9.28226 296.525 18.2556 308.423 26.7347 304.929C29.7156 303.39 31.5844 299.65 31.5844 294.771C30.7813 274.73 4.98863 296.941 5.83809 262.94C6.05432 241.037 14.6261 199.618 36.4649 164.001C51.369 139.836 72.2348 131.339 72.2966 176.407H72.312Z" fill="#0E184B" style="mix-blend-mode:soft-light"/>
<path d="M135.465 317.474C128.376 338.099 117.472 351.567 104.221 351.829C90.7529 351.813 78.2119 335.421 78.2273 292.508C78.1655 255.167 89.5637 205.097 89.6255 150.471C89.6255 139.143 88.1891 129.723 86.6138 123.489C88.2972 115.055 99.958 93.0903 108.051 86.3486C125.164 71.911 134.817 88.4881 134.755 127.861C134.693 168.588 119.851 231.618 119.913 259.246C119.913 267.789 121.797 271.606 124.577 270.99C135.172 269.158 143.157 202.05 143.157 149.748C143.157 124.228 141.164 102.587 136.716 96.3995C141.489 74.4968 153.412 53.887 162.741 48.623C181.768 37.7563 191.622 59.3512 191.591 96.5996C191.53 159.199 174.509 249.842 174.571 293.108C174.571 302.713 175.143 313.98 177.413 322.599C171.529 339.192 163.992 346.611 154.987 346.842C144.701 347.042 138.492 334.112 135.481 317.489L135.465 317.474Z" fill="#0E184B" style="mix-blend-mode:soft-light"/>
<path d="M278.684 115.793C279.024 115.747 279.379 115.701 279.719 115.655C288.229 83.4396 296.167 34.8319 296.584 13.1755C299.92 6.80322 308.075 0.769586 314.809 0.0923418C337.93 -2.27801 353.374 35.2783 353.359 85.81C353.359 164.186 339.227 228.339 339.227 287.321C339.227 297.233 339.86 308.623 341.976 317.551C335.443 334.944 326.161 345.857 312.708 345.903C295.503 345.933 285.557 325.031 285.541 287.059C285.541 239.837 297.403 194.615 303.905 148.84C303.55 148.871 303.21 148.901 302.855 148.917C292.8 186.088 282.406 228.893 278.684 280.518C274.545 287.506 271.023 290.538 265.046 290.815C246.142 291.6 243.192 254.49 243.161 217.534C243.161 199.526 243.98 181.394 243.98 167.633C243.98 163.37 243.98 159.568 243.779 156.29C243.439 156.351 243.099 156.413 242.759 156.459C239.918 190.598 238.497 217.165 238.497 237.944C238.497 277.085 243.146 297.064 250.281 309.67C244.551 333.328 228.334 346.718 216.457 346.842C199.02 346.934 191.02 322.984 190.989 293.601C190.927 242.5 210.851 155.889 210.913 85.3482C210.913 71.5724 209.337 59.2589 207.561 50.3316C212.673 35.6631 221.955 21.3178 235.67 16.9311C261.355 8.80417 273.325 51.4244 278.668 115.778L278.684 115.793Z" fill="#0E184B" style="mix-blend-mode:soft-light"/>
<path d="M448.19 117.979C448.529 118.041 448.869 118.087 449.224 118.149C457.657 88.6422 465.379 44.4366 465.781 23.7037C469.04 18.8706 476.948 16.5157 483.357 18.7167C505.428 26.5358 519.436 67.0012 519.467 112.3C519.498 182.61 506.431 238.467 506.401 293.201C506.401 302.328 506.987 312.872 508.949 321.153C502.879 336.745 494.215 346.796 481.349 346.642C464.854 346.519 454.939 325.801 454.954 288.322C454.954 241.7 466.615 199.264 472.886 157.075C472.546 157.013 472.206 156.952 471.882 156.89C462.167 190.09 451.912 230.325 448.19 281.226C444.066 287.752 440.575 290.507 434.552 290.261C415.462 289.615 412.265 250.781 412.281 212.455C412.281 193.8 413.115 175.206 413.115 160.984C413.115 156.567 413.115 152.642 412.898 149.194C412.543 149.163 412.203 149.132 411.848 149.102C408.929 183.718 407.462 211.208 407.462 232.834C407.462 273.653 412.281 294.94 419.586 308.316C413.763 332.112 397.006 345.841 384.357 345.826C365.823 345.78 356.942 318.998 356.942 286.244C356.942 228.586 378.457 138.574 378.457 63.4764C378.457 48.6232 376.773 34.6628 374.874 24.1809C380.357 10.5436 390.272 -0.338481 404.527 1.38541C431.123 4.92556 442.815 52.8406 448.174 117.979H448.19Z" fill="#0E184B" style="mix-blend-mode:soft-light"/>
<path d="M577.817 191.352C591.624 195.2 599.81 191.445 604.505 182.363C610.343 190.49 614.39 205.097 614.39 219.212C614.297 242.654 606.899 258.954 585.199 253.366C581.369 252.32 576.782 250.35 571.932 247.086C571.762 251.135 571.577 255.167 571.577 258.446C576.056 261.509 580.489 263.725 585.029 264.818C596.752 267.589 607.563 263.617 613.587 252.027C616.351 260.724 618.452 273.222 618.452 287.198C618.297 323.769 605.2 350.074 573.739 350.135C554.094 349.874 525.336 339.115 525.274 270.867C525.32 227.446 539.977 151.272 539.931 105.111C539.931 97.2923 539.746 85.9176 538.603 76.2361C553.09 60.5363 582.218 62.999 602.822 81.0692C620.892 96.7074 630.529 125.198 630.591 153.457C630.591 174.791 622.714 189.09 614.22 193.307C610.158 178.993 603.872 172.159 598.265 169.126C592.844 166.14 586.62 166.017 580.272 167.895C579.562 175.591 578.682 183.641 577.801 191.352H577.817Z" fill="#0E184B" style="mix-blend-mode:soft-light"/>
<path d="M685.11 178.623C704.478 213.27 712.015 247.933 712.2 264.956C712.2 283.288 703.227 285.335 689.466 283.519C692.122 292.277 695.566 299.296 700.323 302.944C703.273 305.237 705.065 304.775 706.455 303.99C707.937 309.424 708.988 321.676 708.988 326.524C708.91 342.208 703.798 354.106 692.663 353.968C675.813 353.983 670.453 316.489 670.685 288.906C670.685 283.658 670.808 278.748 671.071 274.499C670.33 274.038 669.588 273.591 668.832 273.129C668.167 281.41 667.781 289.691 667.766 296.756C667.766 311.517 670.16 328.51 672.353 334.297C669.635 344.209 661.573 352.906 650.02 352.629C636.212 352.444 630.174 330.48 630.251 307.253C630.343 269.312 643.379 203.62 643.301 170.265C643.301 164.432 643.147 155.889 642.267 148.162C653.68 142.621 671.581 154.889 685.095 178.638L685.11 178.623ZM670.978 249.857C681.017 256.937 686.871 251.011 686.902 240.668C686.902 235.388 685.28 229.432 681.604 225.03C679.643 222.721 677.033 220.951 673.697 220.397C673.187 229.047 672.152 239.19 670.978 249.857Z" fill="#0E184B" style="mix-blend-mode:soft-light"/>
</g>
<defs>
<clipPath id="clip0_1_2089">
<rect width="712" height="356.8" fill="white"/>
</clipPath>
</defs>
</svg>
